<svg width="129" height="50" viewBox="0 0 129 50" fill="none" xmlns="http://www.w3.org/2000/svg">
<path d="M24.9052 10.8025V12.3661H30H35.0947V10.8025V9.23877H34.3073H33.52V9.70787C33.52 9.97593 33.4829 10.244 33.4459 10.311C33.3255 10.5232 32.9827 10.6908 32.6492 10.6908H32.3158V9.96477V9.23877H31.4358H30.565L30.5372 9.87541L30.5095 10.5232L29.9815 10.5567L29.4442 10.5902V9.90892V9.23877H28.5179H27.5916V9.96477V10.6908H27.2396C26.6838 10.6908 26.48 10.445 26.48 9.78606V9.23877H25.6926H24.9052V10.8025ZM26.0168 10.0206C26.0168 10.8136 26.7579 11.3497 27.6379 11.1822L28.0547 11.1152V10.4562V9.79723H28.5179H28.981V10.4674V11.1375H29.9537H30.9263V10.4674V9.79723H31.4358H31.9452V10.4562V11.1152L32.3158 11.1934C32.7975 11.2939 33.2236 11.171 33.5941 10.836C33.8257 10.6237 33.8905 10.4897 33.8905 10.177C33.8905 9.79723 33.8905 9.79723 34.3073 9.79723H34.7335L34.7057 10.8248L34.6779 11.8635H30H25.3221L25.2943 10.8248L25.2665 9.79723H25.6463C25.9612 9.79723 26.0168 9.83073 26.0168 10.0206Z" fill="white"/>
<path d="M11.0105 12.9246C11.0105 13.1368 11.0846 13.148 14.8825 13.1703L18.7453 13.2038V13.7623V14.3208L18.4025 14.3543C17.893 14.4101 17.4947 14.8904 17.4947 15.4712C17.4947 16.0185 17.7634 16.3312 18.3284 16.4429C18.5322 16.4876 18.6989 16.5658 18.6989 16.6104C18.6989 16.7221 18.3006 16.8338 17.8004 16.8897C17.5688 16.912 17.3928 17.0125 17.2446 17.2248L17.0316 17.5152L16.661 17.1912C15.92 16.5323 15.4661 15.6387 15.2623 14.3878C15.1697 13.7846 15.1326 13.7064 14.9381 13.7064C14.725 13.7064 14.7158 13.74 14.7714 14.1756C14.9937 16.1078 15.8459 17.4593 17.2817 18.1741C18.3747 18.7214 18.9213 19.1235 19.4215 19.7937C19.8754 20.3856 20.181 21.1675 20.181 21.7148C20.181 21.9382 20.1347 21.9717 19.8661 21.9717C19.5697 21.9717 19.5326 21.927 19.3196 21.3797C18.9027 20.274 18.1061 19.4809 16.7074 18.7884C15.8829 18.3752 15.3642 17.9396 15.0122 17.3588C14.4564 16.4094 14.1878 15.5494 14.0766 14.3766C14.021 13.807 14.0025 13.7623 13.7709 13.7288C13.4467 13.6841 13.4375 13.7958 13.7339 15.2031C14.021 16.5658 14.336 17.2806 15.04 18.1295C15.4661 18.6432 15.744 18.8778 16.2442 19.1124C17.5503 19.7267 18.3933 20.4415 18.8101 21.2457C19.1528 21.927 19.0973 21.9717 17.8745 21.9717H16.7722L15.957 21.4691C14.3267 20.475 13.1781 19.157 12.5112 17.4928C12.2981 16.9679 12.0943 16.6104 11.9832 16.5658C11.7238 16.4764 11.7053 16.5546 11.872 17.0796C12.261 18.3082 13.2337 19.8495 14.1878 20.7654L14.6417 21.1898H13.9377C13.2522 21.1898 13.2337 21.201 13.2337 21.4691C13.2337 21.7483 13.2337 21.7483 14.1137 21.7483H15.0029L14.9752 25.4788C14.9474 29.0753 14.9381 29.2317 14.7528 29.5332C14.6417 29.7008 14.4842 29.8572 14.4008 29.8795C14.2712 29.913 14.2526 29.6673 14.2526 27.2324V24.5518L13.9284 24.1608C13.456 23.58 12.6408 23.4907 11.9183 23.9375C11.5478 24.172 11.3718 24.6858 11.3162 25.6687C11.2699 26.4059 11.2328 26.5622 11.0846 26.6181C10.7975 26.7186 10.5474 27.3329 10.5474 27.9137C10.5474 28.7961 10.8067 29.2205 11.4552 29.388L11.7516 29.4774V27.1765C11.7516 24.9315 11.7516 24.8868 11.9646 24.5853C12.1499 24.3284 12.2796 24.2725 12.752 24.2279C13.2893 24.1832 13.3356 24.1944 13.6042 24.5183L13.8821 24.8533V29.2875C13.8821 33.5765 13.8728 33.744 13.6876 34.135C13.4653 34.6152 12.9187 35.1402 12.5575 35.2296C12.4185 35.2631 12.2888 35.3301 12.261 35.3748C12.2425 35.4194 12.6316 36.581 13.1318 37.9548L14.0396 40.4568L15.4476 40.4903L16.8463 40.5238V40.0658C16.8463 39.485 16.5592 38.8037 16.2442 38.6362C16.1145 38.558 15.8181 38.5021 15.5958 38.5021C15.3642 38.5021 15.1789 38.4798 15.1789 38.4575C15.1789 38.4351 15.077 38.1447 14.9566 37.7985L14.725 37.1842L15.1326 36.8379C15.7162 36.3353 16.2627 35.6428 16.661 34.9056L17.0038 34.269L17.6707 35.0844C18.032 35.5423 18.3284 35.9556 18.3284 36.0002C18.3284 36.0561 18.1802 36.3465 18.0042 36.648C17.8282 36.9496 17.717 37.2512 17.7448 37.3182C17.7819 37.3852 18.3562 38.1336 19.0139 38.9713L20.2274 40.5126H21.6539H23.0712L23.0063 40.0882C22.8303 38.9489 22.4135 38.5021 21.5057 38.5021H20.9221L20.6905 37.9437C20.5608 37.6421 20.4589 37.3405 20.4589 37.2847C20.4589 37.2288 20.6072 36.9161 20.7924 36.5922C21.3112 35.6652 21.2648 35.4529 19.9217 32.4372C19.301 31.0523 18.7916 29.8795 18.7916 29.846C18.7916 29.8013 18.912 29.5668 19.0602 29.3099C19.4863 28.5615 19.8198 27.6903 20.1718 26.4505L20.5053 25.2889L21.8947 24.7528C22.6636 24.4512 23.2935 24.2055 23.312 24.2055C23.3213 24.2055 23.3305 25.3783 23.3305 26.7968V29.3992L26.5819 31.5214C28.3604 32.683 29.8888 33.6547 29.9815 33.677C30.0648 33.6882 31.6025 32.7388 33.381 31.5549L36.6232 29.3992L36.6509 26.7968C36.6602 25.3783 36.6787 24.2055 36.6973 24.2055C36.7065 24.2055 37.3457 24.4512 38.1053 24.7528L39.4947 25.3113L39.7912 26.3724C40.1061 27.534 40.6248 28.8408 40.9954 29.4439C41.2177 29.7901 41.2269 29.8348 41.0973 30.114C41.0232 30.2704 40.5044 31.432 39.9486 32.6941C39.0131 34.8051 38.9389 35.0285 38.9389 35.5981C38.9389 36.1119 38.9853 36.2906 39.2539 36.7262L39.5596 37.24L39.3187 37.8767L39.0779 38.5021H38.4295C37.8181 38.5021 37.7718 38.5245 37.4661 38.8931C37.1697 39.2505 36.9474 39.8536 36.9474 40.3116C36.9474 40.4903 37.0771 40.5126 38.3646 40.5126L39.7726 40.5014L41.0417 38.8819L42.3107 37.2512L41.9958 36.6816C41.8198 36.3576 41.6716 36.0561 41.6716 35.9891C41.6716 35.8662 42.8851 34.3695 42.9869 34.3695C43.0147 34.3695 43.1537 34.6041 43.2926 34.8833C43.5705 35.4529 44.4968 36.6034 44.9229 36.9049C45.2472 37.1395 45.2472 37.1953 44.9971 37.9325L44.7933 38.5021H44.3208C43.5705 38.5021 43.2556 38.9154 43.1352 40.0435L43.0796 40.5126L44.5061 40.4903L45.9419 40.4568L46.5903 38.6697C47.8501 35.196 47.8038 35.3748 47.6185 35.3077C47.1739 35.1514 46.6459 34.7493 46.4236 34.3807L46.1642 33.9786L46.1364 29.4551C46.1179 26.1713 46.1457 24.8645 46.2198 24.6858C46.3773 24.3396 46.7848 24.172 47.3314 24.2279C47.6463 24.2725 47.8686 24.3619 47.9983 24.5294C48.1928 24.7528 48.2021 24.8868 48.2299 27.1207L48.2577 29.4662L48.5541 29.3992C49.0173 29.2764 49.3693 28.7849 49.4248 28.1929C49.4897 27.4893 49.3229 26.942 48.9339 26.6628L48.6189 26.417V25.5235C48.6189 24.63 48.6189 24.6188 48.2669 24.2055C47.7019 23.5242 46.6737 23.4684 46.0808 24.0938L45.7937 24.4066L45.7474 27.1319C45.7103 29.4104 45.6825 29.846 45.5621 29.846C45.488 29.846 45.3305 29.6784 45.2194 29.4662C45.0063 29.0865 45.0063 29.053 45.0063 25.423V21.7483H45.8863C46.7663 21.7483 46.7663 21.7483 46.7663 21.4691C46.7663 21.201 46.7478 21.1898 46.0623 21.1898H45.3676L45.9048 20.6537C46.5811 19.9724 47.0535 19.3357 47.4703 18.5651C47.8131 17.9061 48.304 16.6328 48.2299 16.5546C48.1187 16.4094 47.7853 16.6775 47.6926 16.9902C47.3221 18.2747 46.0716 20.0059 44.8766 20.9106C43.7002 21.793 43.2185 21.9717 42.0514 21.9717C41.4956 21.9717 41.0139 21.9382 40.9954 21.8823C40.9768 21.8376 41.0139 21.6366 41.088 21.4356C41.3011 20.8212 42.0143 20.0952 42.9684 19.548C43.4501 19.2687 43.9874 18.9672 44.1541 18.8666C45.2008 18.2635 45.9882 16.7668 46.3495 14.6893C46.5255 13.6841 46.5347 13.7064 46.2198 13.7064C45.9697 13.7064 45.9604 13.7288 45.9048 14.4213C45.8122 15.5829 45.3583 16.845 44.7377 17.6268C44.3023 18.1853 44.0707 18.364 43.3482 18.7438C41.8291 19.5256 40.9954 20.3521 40.6526 21.4132C40.5044 21.8712 40.4581 21.9158 40.1524 21.9493C39.8282 21.9828 39.8189 21.9717 39.8189 21.6143C39.8189 21.0446 40.2265 20.1734 40.7823 19.5368C41.3011 18.9448 41.5882 18.7438 42.7183 18.1741C44.08 17.4928 45.0434 15.9961 45.1638 14.3878C45.2101 13.7511 45.2008 13.7064 45.0248 13.7064C44.8859 13.7064 44.8118 13.7958 44.7747 14.008C44.5061 15.5382 44.2745 16.1302 43.6909 16.7892C42.9777 17.5822 42.9869 17.5822 42.7461 17.2359C42.5886 16.9902 42.4497 16.912 42.1347 16.8785C41.2455 16.7892 41.0232 16.5769 41.6716 16.4429C42.1718 16.3424 42.5053 16.0073 42.5053 15.6052C42.5053 14.868 42.2366 14.5106 41.5789 14.3766C41.2547 14.3208 41.2547 14.3096 41.2547 13.7623V13.2038L45.1267 13.1703C48.9154 13.148 48.9895 13.1368 48.9895 12.9246C48.9895 12.7012 48.9246 12.7012 44.9137 12.7012H40.8379V13.8181V14.9239L41.1158 14.868C41.5141 14.7675 41.8291 14.9016 42.0143 15.2255C42.1625 15.5159 42.1625 15.527 41.9587 15.7281C41.8105 15.8733 41.5975 15.9403 41.2455 15.9403C40.7638 15.9403 40.7453 15.9515 40.7453 16.253C40.7453 16.8785 41.3011 17.3923 41.9773 17.3923C42.1533 17.3923 42.3478 17.4705 42.4126 17.571C42.5145 17.7162 42.5053 17.7497 42.32 17.8056C42.1996 17.8502 41.8661 18.0178 41.5882 18.1965C41.3011 18.364 41.0324 18.5092 40.9768 18.498C40.9305 18.498 40.1802 17.9619 39.3095 17.3029L37.744 16.0967L37.6236 15.4042C37.4846 14.5665 37.3086 14.142 36.9844 13.8293C36.7343 13.5948 36.688 13.5948 29.9907 13.5948H23.2472L22.9137 13.941C22.5802 14.2984 22.3116 15.1026 22.3116 15.7281C22.3116 16.0073 22.1448 16.1637 20.6905 17.2694C19.8013 17.9508 19.0324 18.5092 18.9768 18.5092C18.9213 18.5092 18.6804 18.3864 18.4396 18.23C18.1987 18.0848 17.8838 17.9061 17.7356 17.8391C17.3558 17.6715 17.5596 17.437 18.1524 17.37C18.6804 17.3029 19.0695 17.0125 19.1992 16.5881C19.3474 16.0855 19.2269 15.9403 18.6712 15.9403C18.069 15.9403 17.8189 15.7504 17.893 15.3595C17.9672 15.0021 18.4025 14.7675 18.8379 14.8569L19.1621 14.9239V13.807V12.7012H15.0863C11.0754 12.7012 11.0105 12.7012 11.0105 12.9246ZM29.7684 18.23V22.1392L26.832 22.1727L23.8863 22.1951V18.23V14.2649L26.832 14.2872L29.7684 14.3208V18.23ZM35.6505 14.3543C35.6505 14.3989 34.7427 15.6722 33.6404 17.1801C32.5288 18.6879 31.3524 20.3075 31.0189 20.7766C30.6855 21.2345 30.389 21.6254 30.352 21.6254C30.2594 21.6366 30.2501 14.4436 30.3427 14.3431C30.4261 14.2314 35.6505 14.2426 35.6505 14.3543ZM23.3305 15.7616V17.1466L21.8299 18.7773L20.3385 20.408L20.1069 19.9836C19.9773 19.7602 19.7735 19.4363 19.6438 19.2576C19.4678 19.0342 19.4307 18.9225 19.5048 18.8331C19.5604 18.7661 20.2922 18.1853 21.1166 17.5598L22.6265 16.4206L22.7469 15.6611C22.8581 14.9127 23.0619 14.3766 23.2379 14.3766C23.2935 14.3766 23.3305 14.9351 23.3305 15.7616ZM37.0585 14.8345C37.1512 15.0468 37.2253 15.46 37.2253 15.7728V16.3312L38.8926 17.5933C39.8097 18.297 40.56 18.889 40.56 18.9113C40.56 18.9336 40.3747 19.2352 40.1432 19.5815C39.9116 19.9165 39.7263 20.2404 39.7263 20.3075C39.7263 20.475 39.5225 20.3075 38.9667 19.682C38.6981 19.3692 38.0682 18.6768 37.5773 18.1295L36.6695 17.1466V15.7504C36.6695 14.2537 36.7436 14.075 37.0585 14.8345ZM36.1137 18.5092V22.1951H33.4644C31.3895 22.1951 30.8244 22.1616 30.8522 22.0499C30.8893 21.9382 36.021 14.8457 36.0952 14.8234C36.1044 14.8234 36.1137 16.4764 36.1137 18.5092ZM23.3305 18.6097C23.3305 19.1347 23.2935 19.3134 23.1545 19.4251C22.821 19.7043 22.5802 20.3745 22.5154 21.1563L22.4505 21.9158L21.5983 21.9493C20.6627 21.9828 20.6349 21.9605 20.533 21.2457C20.4867 20.9329 20.5701 20.8101 21.8392 19.4363C22.5802 18.6209 23.2194 17.9619 23.2657 17.9508C23.3027 17.9508 23.3305 18.2523 23.3305 18.6097ZM38.1145 19.4139C39.504 20.9441 39.5596 21.0446 39.3558 21.6924C39.2632 21.9717 39.2539 21.9828 38.4109 21.9493L37.5495 21.9158L37.4939 21.3015C37.4105 20.408 37.2531 19.8942 36.9381 19.5815C36.6973 19.3357 36.6695 19.2352 36.6695 18.6321C36.6695 18.2523 36.6973 17.9508 36.725 17.9508C36.7528 17.9508 37.3735 18.6097 38.1145 19.4139ZM23.2657 23.6471C23.1823 23.7364 21.0703 24.5518 19.8013 24.9874C19.3103 25.1661 18.8194 25.3336 18.7175 25.3671C18.56 25.4341 18.5229 25.3671 18.4303 24.9092C18.2728 24.1944 17.9116 23.312 17.5781 22.8876C17.4299 22.6977 17.3095 22.519 17.3095 22.4855C17.3095 22.4408 18.56 22.4184 20.0792 22.4184H22.8488L22.8766 21.4914C22.9044 20.7989 22.96 20.4862 23.0989 20.2404L23.2842 19.9054L23.312 21.7371C23.3213 22.7535 23.3027 23.6024 23.2657 23.6471ZM36.9474 20.4303C37.0678 20.7542 37.1326 21.1675 37.1326 21.6589V22.4184H39.8653C41.3659 22.4184 42.5979 22.4408 42.5979 22.4743C42.5979 22.4966 42.4126 22.854 42.1903 23.2561C41.968 23.6582 41.7086 24.306 41.616 24.7081C41.4863 25.2554 41.4029 25.423 41.3011 25.3783C41.2269 25.356 40.5971 25.1326 39.9116 24.8868C39.2261 24.6411 38.2257 24.2725 37.6884 24.0603L36.7158 23.6917L36.688 21.8265C36.6787 20.7989 36.688 19.9612 36.7158 19.9612C36.7436 19.9612 36.8547 20.1734 36.9474 20.4303ZM16.2627 22.2621C17.1427 22.7647 17.8745 24.0045 18.0876 25.3448C18.1524 25.7804 18.2265 25.9926 18.3192 25.9926C18.3933 25.9926 18.7638 25.8921 19.1343 25.758C19.5141 25.6352 19.8568 25.5458 19.8939 25.5682C19.9958 25.6128 19.5419 27.21 19.1528 28.1706C18.9583 28.662 18.6341 29.1982 18.2821 29.6226L17.7263 30.2928L17.6985 29.6449C17.6707 29.0418 17.6522 28.9971 17.4669 29.0306C17.2817 29.0641 17.2632 29.1312 17.2446 29.9018C17.2076 32.0575 17.0316 33.0851 16.448 34.403C16.096 35.2184 15.3457 36.1231 14.688 36.5587L14.1785 36.8826L14.549 37.966L14.9288 39.0606H15.4476C15.7347 39.0606 16.0312 39.1276 16.1145 39.2058C16.2535 39.3287 16.4758 39.7531 16.4758 39.8871C16.4758 39.9206 16.0034 39.9541 15.4198 39.9541H14.3638L13.6042 37.8208C13.0114 36.1343 12.8724 35.654 12.9743 35.587C13.0392 35.5311 13.1225 35.4864 13.1596 35.4864C13.2985 35.4864 13.984 34.6599 14.1229 34.3584C14.2156 34.1238 14.2526 33.5988 14.2526 32.2809V30.5161L14.6232 30.3263C14.9103 30.1811 15.04 30.0247 15.1789 29.6561C15.3457 29.2093 15.3642 28.9078 15.3642 25.5123V21.8488L15.5773 21.9158C15.6884 21.9605 15.9941 22.1169 16.2627 22.2621ZM44.6358 25.5458C44.6358 29.0641 44.6451 29.2652 44.8303 29.6896C44.96 30.0135 45.1267 30.2034 45.3768 30.3374L45.7381 30.5161L45.7659 32.4149C45.7937 34.5929 45.8122 34.6376 46.6459 35.3189L47.1276 35.7098L46.8034 36.6369C46.6181 37.1395 46.2846 38.0889 46.0531 38.7479L45.6269 39.9541H44.5709C43.9966 39.9541 43.5242 39.9318 43.5242 39.8983C43.5242 39.7196 43.8114 39.1946 43.9411 39.1276C44.0244 39.0941 44.3116 39.0606 44.5802 39.0606H45.0619L45.4046 38.0442C45.5899 37.4969 45.7474 36.9943 45.7474 36.9384C45.7474 36.8826 45.5343 36.6927 45.2657 36.5364C44.608 36.1343 43.8669 35.1849 43.4779 34.2578C42.9962 33.0962 42.7832 32.0575 42.7183 30.4268C42.672 29.1423 42.6442 29.0083 42.4867 29.0083C42.3478 29.0083 42.32 29.0976 42.32 29.6226C42.32 29.9577 42.2829 30.2369 42.2366 30.2369C42.1069 30.2369 41.2547 29.0865 40.9954 28.5504C40.6989 27.936 39.9672 25.6575 40.0413 25.5682C40.0691 25.5458 40.4488 25.624 40.8749 25.7692C41.3011 25.9032 41.6994 25.9926 41.7457 25.9479C41.792 25.9144 41.8661 25.6464 41.9032 25.356C42.0606 24.0045 42.9962 22.5636 44.0152 22.0945C44.2745 21.9717 44.5246 21.8712 44.5709 21.8712C44.608 21.86 44.6358 23.5242 44.6358 25.5458ZM29.7962 24.5071C29.8147 25.6352 29.7869 26.1043 29.7128 26.1043C29.6017 26.1043 24.9238 23.1221 24.7663 22.9546C24.72 22.8987 25.7667 22.8764 27.221 22.8876L29.7684 22.9211L29.7962 24.5071ZM36.1137 25.9256V28.9748L34.2888 30.1922C33.2792 30.8512 31.9823 31.7112 31.3987 32.1022C30.8244 32.4931 30.3335 32.8058 30.3149 32.8058C30.2964 32.8058 30.2779 30.572 30.2779 27.8355V22.8652H33.1958H36.1137V25.9256ZM27.9621 25.8027L29.7684 26.9643L29.7962 28.2153C29.8147 29.1647 29.7962 29.4551 29.7036 29.4551C29.6387 29.4439 28.3141 28.6174 26.7579 27.6121L23.9326 25.7916L23.9048 24.4848L23.877 23.178L25.0164 23.904C25.6463 24.306 26.9709 25.1661 27.9621 25.8027ZM28.1474 29.2652L29.7684 30.3039L29.7962 31.4655C29.8055 32.1022 29.7869 32.6606 29.7499 32.7053C29.7128 32.75 28.3697 31.9346 26.7857 30.8847L23.8863 28.986V27.7573V26.5399L25.2109 27.3776C25.9335 27.8355 27.2581 28.6844 28.1474 29.2652ZM11.2884 27.9696L11.2792 28.8408L11.1032 28.5727C10.8808 28.26 10.8623 27.7015 11.0661 27.3552C11.1402 27.2212 11.2236 27.1095 11.2514 27.1095C11.2699 27.1095 11.2884 27.5004 11.2884 27.9696ZM49.0358 27.936C49.0358 28.4163 48.8598 28.8408 48.7023 28.7179C48.6004 28.6509 48.5912 27.2994 48.6838 27.1765C48.8227 27.009 49.0358 27.4669 49.0358 27.936ZM19.5234 32.7276C20.7276 35.4306 20.7646 35.6428 20.2829 36.4135C19.7457 37.2624 19.7549 37.2512 20.1996 38.1782L20.6072 39.0048L21.3667 39.0606C22.0522 39.1053 22.1541 39.15 22.3116 39.3957C22.645 39.9095 22.5802 39.9541 21.4964 39.9541H20.5053L19.3659 38.5803L18.2358 37.2065L18.5044 36.7709C18.9768 36.0114 18.912 35.7433 17.9023 34.4477L17.2261 33.5765L17.3558 33.1409C17.4299 32.9064 17.5318 32.3144 17.5874 31.8341C17.6429 31.365 17.717 30.9406 17.7541 30.9071C17.9949 30.6502 18.3655 30.3486 18.4118 30.3486C18.4396 30.3486 18.9398 31.4208 19.5234 32.7276ZM41.9309 30.6278C42.2552 30.8959 42.2829 30.9517 42.4219 31.9458C42.5053 32.5043 42.5979 33.1186 42.6349 33.3084C42.6905 33.61 42.6349 33.7329 41.9587 34.6376C41.0973 35.7768 41.0509 36.0002 41.4771 36.7597L41.7549 37.24L40.6248 38.5915L39.4947 39.9541H38.4943C37.392 39.9541 37.2901 39.8648 37.7347 39.3398C37.9293 39.0941 38.0404 39.0606 38.6518 39.0606H39.3465L39.7634 38.2229C39.9949 37.7538 40.1895 37.3517 40.1895 37.3182C40.1895 37.2847 40.0135 36.9608 39.8004 36.5922C39.2076 35.587 39.2168 35.52 40.4674 32.7276C41.0509 31.4208 41.5419 30.3486 41.5604 30.3486C41.5789 30.3486 41.7457 30.4715 41.9309 30.6278Z" fill="white"/>
<path d="M26.4337 16.3536C26.1465 16.4429 25.6648 16.9232 25.5074 17.2806C25.2851 17.7944 25.3221 18.8443 25.5815 19.2911C25.9057 19.8719 26.2299 20.1064 26.7764 20.1511C27.1562 20.1846 27.3322 20.1399 27.5731 19.9724C27.9714 19.6708 28.24 19.1124 28.24 18.5874V18.1741H27.4989C26.7672 18.1741 26.7579 18.1741 26.7579 18.4534C26.7579 18.7103 26.7949 18.7326 27.1747 18.7326C27.6657 18.7326 27.7213 18.9225 27.3507 19.2799C26.9802 19.6261 26.6097 19.5815 26.2392 19.1347C25.9798 18.822 25.9242 18.6768 25.9242 18.2747C25.9242 17.3141 26.6282 16.6998 27.2488 17.1354C27.5453 17.3476 27.5453 17.3476 27.7583 17.1131C28.0084 16.8338 27.9436 16.7333 27.3785 16.4429C27.0451 16.2754 26.7857 16.253 26.4337 16.3536Z" fill="white"/>
<path d="M31.7229 24.5629C31.6766 24.7193 31.3895 27.7685 31.3895 28.0589C31.3895 28.1706 31.4821 28.2265 31.6581 28.2265C31.9267 28.2265 31.936 28.2041 31.9916 27.5786C32.0286 27.2324 32.0842 26.7186 32.1213 26.4394L32.1954 25.9368L32.5474 26.8526C32.8623 27.668 32.9364 27.7797 33.1402 27.7797C33.3533 27.7797 33.4181 27.668 33.7053 26.8861C33.8813 26.3947 34.0573 25.9926 34.085 25.9926C34.1221 25.9926 34.1777 26.3612 34.2147 26.7968C34.3074 28.1594 34.3351 28.2265 34.6408 28.2265C34.789 28.2265 34.9095 28.1929 34.9095 28.1371C34.9095 27.9696 34.6223 24.9204 34.576 24.6746C34.5389 24.4736 34.4834 24.4177 34.2888 24.4513C34.0758 24.4848 33.9924 24.63 33.6311 25.6017C33.4088 26.216 33.1958 26.7521 33.1587 26.7968C33.1309 26.8415 32.9086 26.3389 32.6678 25.6799C32.2973 24.63 32.2139 24.4848 32.0008 24.4513C31.8619 24.4289 31.7415 24.4736 31.7229 24.5629Z" fill="white"/>
<path d="M27.6564 35.3301C27.6194 35.3748 27.5916 35.8327 27.5916 36.3465V37.2735H28.1011C28.379 37.2735 28.6105 37.2177 28.6105 37.1618C28.6105 37.0948 28.4438 37.0501 28.24 37.0501C27.888 37.0501 27.8695 37.0278 27.8695 36.7151C27.8695 36.4135 27.8973 36.38 28.1474 36.38C28.3048 36.38 28.4253 36.3241 28.4253 36.2683C28.4253 36.2013 28.3048 36.1566 28.1474 36.1566C27.9158 36.1566 27.8695 36.1119 27.8695 35.8885C27.8695 35.654 27.9158 35.6093 28.2215 35.5758C28.4067 35.5535 28.5642 35.4865 28.5642 35.4306C28.5642 35.2966 27.7583 35.2184 27.6564 35.3301Z" fill="white"/>
<path d="M29.7036 35.3859C29.5091 35.52 29.4813 35.9779 29.6573 36.1566C29.7129 36.2125 29.8796 36.3688 30.0185 36.4917C30.3705 36.8156 30.2686 37.0948 29.8425 36.9943C29.5924 36.9385 29.5276 36.9608 29.5554 37.0725C29.5832 37.1618 29.7406 37.2177 29.9537 37.2177C30.2131 37.2177 30.3335 37.1507 30.4354 36.972C30.5651 36.7374 30.5558 36.7039 30.2964 36.4135C30.1482 36.2348 29.9537 36.0337 29.8703 35.9556C29.6387 35.7322 29.8425 35.4641 30.139 35.5981C30.4169 35.7322 30.5373 35.5423 30.2872 35.3859C30.0649 35.2407 29.9074 35.2407 29.7036 35.3859Z" fill="white"/>
<path d="M31.3617 35.3301C31.269 35.4529 31.3802 35.5981 31.584 35.5981C31.7415 35.5981 31.76 35.6763 31.76 36.4358C31.76 36.9161 31.797 37.2735 31.8526 37.2735C31.9082 37.2735 31.9452 36.9273 31.9452 36.447C31.9452 35.6987 31.9638 35.6093 32.1305 35.5758C32.2417 35.5535 32.3343 35.4865 32.3436 35.4306C32.3621 35.3077 31.4636 35.2072 31.3617 35.3301Z" fill="white"/>
<path d="M26.5819 38.3123C26.4522 38.5133 26.5634 38.6473 26.7209 38.491C26.8969 38.3234 27.1284 38.4463 27.1284 38.7032C27.1284 38.826 27.008 39.1164 26.8691 39.351C26.4244 40.0882 26.4244 40.0658 26.9339 40.0658C27.1933 40.0658 27.4063 40.01 27.4063 39.9541C27.4063 39.8871 27.2766 39.8424 27.1192 39.8424H26.832L27.1192 39.3733C27.2766 39.1164 27.4063 38.8149 27.4063 38.7144C27.4063 38.2676 26.8135 37.9772 26.5819 38.3123Z" fill="white"/>
<path d="M28.5827 38.3346C28.24 38.7367 28.2863 39.7308 28.6568 40.0212C29.0829 40.3562 29.4442 39.9318 29.4442 39.083C29.4442 38.3234 28.944 37.8878 28.5827 38.3346ZM29.0737 38.558C29.2219 38.7702 29.2311 39.5856 29.0829 39.7643C28.7865 40.1217 28.4623 39.1611 28.7031 38.6138C28.8236 38.3458 28.9162 38.3346 29.0737 38.558Z" fill="white"/>
<path d="M30.6114 38.4128C30.3983 38.7814 30.4168 39.6302 30.6484 39.9318C30.7596 40.0658 30.8892 40.1775 30.9541 40.1775C31.1857 40.1775 31.4636 39.8425 31.5191 39.485C31.584 39.0606 31.4543 38.3905 31.2783 38.2564C31.056 38.0889 30.7503 38.1671 30.6114 38.4128ZM31.2042 38.6138C31.4543 39.1723 31.1208 40.1217 30.8151 39.7531C30.6577 39.5632 30.6669 38.8037 30.8244 38.5692C30.9911 38.3346 31.0838 38.3458 31.2042 38.6138Z" fill="white"/>
<path d="M32.7048 38.3011C32.5659 38.4686 32.5566 38.9154 32.6956 39.0048C32.7604 39.0606 32.7419 39.15 32.64 39.284C32.4362 39.5632 32.4918 39.8536 32.7882 40.0547C33.0105 40.1999 33.0568 40.1999 33.2792 40.0323C33.5478 39.8201 33.5941 39.4962 33.3811 39.284C33.2606 39.1611 33.2606 39.1164 33.3811 38.9154C33.5571 38.6138 33.5571 38.558 33.3718 38.3458C33.2051 38.1336 32.8623 38.1112 32.7048 38.3011ZM33.2236 38.6473C33.2606 38.8707 32.992 39.0271 32.8531 38.8596C32.7141 38.692 32.8438 38.3681 33.0291 38.4128C33.1217 38.4351 33.2051 38.5356 33.2236 38.6473ZM33.2236 39.552C33.2699 39.8201 33.131 39.9765 32.9364 39.8871C32.779 39.8201 32.7234 39.4962 32.8438 39.351C32.955 39.217 33.1958 39.3398 33.2236 39.552Z" fill="white"/>
<path d="M58.6234 25.5V16.22C58.6234 15.98 58.6034 15.72 58.5634 15.44C58.5234 15.1467 58.47 14.9267 58.4034 14.78C58.2567 14.3933 57.93 14.2 57.4234 14.2C57.05 14.2 56.8634 14.1 56.8634 13.9C56.8634 13.6467 57.0434 13.52 57.4034 13.52L58.0034 13.56L59.7434 13.68L61.5234 13.54L62.1034 13.5C62.4634 13.5 62.6434 13.6333 62.6434 13.9C62.6434 14.06 62.4767 14.16 62.1434 14.2C61.8367 14.2 61.6167 14.3533 61.4834 14.66C61.3634 14.9667 61.3034 15.48 61.3034 16.2V25.32C61.3034 25.56 61.33 25.8267 61.3834 26.12C61.4367 26.4 61.5034 26.6067 61.5834 26.74C61.7567 27.1267 62.1434 27.32 62.7434 27.32C62.9834 27.32 63.1434 27.3467 63.2234 27.4C63.3167 27.44 63.3634 27.52 63.3634 27.64C63.3634 27.8933 63.1834 28.02 62.8234 28.02L62.2034 28C61.3367 27.92 60.6967 27.88 60.2834 27.88L58.3634 28L57.7634 28.02C57.4034 28.02 57.2234 27.8933 57.2234 27.64C57.2234 27.4533 57.3967 27.3467 57.7434 27.32C58.0367 27.32 58.2567 27.2 58.4034 26.96C58.55 26.7067 58.6234 26.3067 58.6234 25.76V25.32V25.5ZM79.8832 24.02C79.9899 23.8733 80.0899 23.8 80.1832 23.8C80.3565 23.8 80.4432 23.8867 80.4432 24.06L80.3632 24.38L80.2032 24.9C80.1099 25.22 80.0165 25.4667 79.9232 25.64C79.8299 25.8 79.6832 25.98 79.4832 26.18C78.0565 27.5667 76.2699 28.26 74.1232 28.26C72.0565 28.26 70.3632 27.5867 69.0432 26.24C67.7365 24.88 67.0832 23.1333 67.0832 21C67.0832 18.76 67.7699 16.92 69.1432 15.48C70.5165 14.04 72.2699 13.32 74.4032 13.32C75.1099 13.32 75.7165 13.3933 76.2232 13.54C76.7299 13.6867 77.4165 13.9867 78.2832 14.44C78.5365 14.5733 78.7299 14.64 78.8632 14.64C79.0365 14.64 79.1632 14.5667 79.2432 14.42L79.3632 14.18L79.5232 14.12C79.7232 14.12 79.8232 14.3067 79.8232 14.68C79.8232 15.2 79.8499 15.7333 79.9032 16.28C79.9565 16.8133 80.0165 17.2 80.0832 17.44L80.1432 17.86C80.1432 18.06 80.0632 18.16 79.9032 18.16C79.7165 18.16 79.5699 18.0067 79.4632 17.7C79.3032 17.34 79.0499 16.94 78.7032 16.5C78.3699 16.0467 78.0032 15.6533 77.6032 15.32C77.2165 14.9733 76.7299 14.6867 76.1432 14.46C75.5699 14.2333 75.0232 14.12 74.5032 14.12C73.1299 14.12 72.0232 14.6667 71.1832 15.76C70.3432 16.8533 69.9232 18.3 69.9232 20.1C69.9232 22.06 70.4165 23.68 71.4032 24.96C72.3899 26.24 73.6499 26.88 75.1832 26.88C75.5699 26.88 75.9699 26.8267 76.3832 26.72C76.8099 26.6133 77.2232 26.4667 77.6232 26.28C78.0499 26.0533 78.3899 25.8467 78.6432 25.66C78.8965 25.4733 79.0832 25.28 79.2032 25.08L79.8832 24.02ZM85.0777 20.92C85.0777 18.7067 85.7911 16.8933 87.2177 15.48C88.6577 14.0533 90.4844 13.34 92.6977 13.34C94.8844 13.34 96.6777 14.02 98.0777 15.38C99.4911 16.7267 100.198 18.4667 100.198 20.6C100.198 22.8533 99.4711 24.7 98.0177 26.14C96.5777 27.5667 94.7311 28.28 92.4777 28.28C90.3444 28.28 88.5777 27.5867 87.1777 26.2C85.7777 24.8133 85.0777 23.0533 85.0777 20.92ZM87.8977 19.58L87.9577 20.62C88.1311 22.74 88.6777 24.4067 89.5977 25.62C90.5177 26.82 91.6844 27.42 93.0977 27.42C94.4311 27.42 95.4711 26.92 96.2177 25.92C96.9644 24.92 97.3377 23.5133 97.3377 21.7C97.3377 19.5 96.8511 17.6867 95.8777 16.26C94.9044 14.8333 93.6577 14.12 92.1377 14.12C90.8444 14.12 89.8111 14.6133 89.0377 15.6C88.2777 16.5733 87.8977 17.9 87.8977 19.58ZM107.506 13.54C107.666 13.54 107.773 13.56 107.826 13.6C107.893 13.64 108.026 13.7667 108.226 13.98L116.286 23.44L116.406 23.56L116.426 23.32V16.22L116.386 15.78C116.359 15.5533 116.326 15.3667 116.286 15.22C116.259 15.0733 116.219 14.9267 116.166 14.78C115.966 14.3933 115.586 14.2 115.026 14.2C114.786 14.2 114.626 14.18 114.546 14.14C114.466 14.1 114.426 14.02 114.426 13.9C114.426 13.6467 114.606 13.52 114.966 13.52L115.566 13.56L116.666 13.64L117.526 13.56L118.106 13.52C118.493 13.52 118.686 13.6467 118.686 13.9C118.686 14.1 118.519 14.2 118.186 14.2C117.906 14.24 117.706 14.4067 117.586 14.7C117.479 14.9933 117.426 15.5 117.426 16.22V27.72C117.426 28.0667 117.319 28.24 117.106 28.24C116.933 28.24 116.733 28.1067 116.506 27.84L107.186 17.24L107.066 17.1L107.046 17.26V25.32C107.046 25.5333 107.073 25.7933 107.126 26.1C107.179 26.3933 107.239 26.6067 107.306 26.74C107.506 27.1267 107.893 27.32 108.466 27.32C108.706 27.32 108.866 27.3467 108.946 27.4C109.039 27.44 109.086 27.52 109.086 27.64C109.086 27.9067 108.893 28.04 108.506 28.04L107.926 28L106.826 27.9L105.626 28L105.006 28.02C104.646 28.02 104.466 27.8933 104.466 27.64C104.466 27.4667 104.646 27.36 105.006 27.32C105.393 27.32 105.659 27.18 105.806 26.9C105.953 26.6067 106.026 26.08 106.026 25.32V16.22C106.026 16.1267 105.986 15.98 105.906 15.78C105.786 15.4867 105.693 15.2867 105.626 15.18C105.573 15.0733 105.519 14.9867 105.466 14.92C105.413 14.84 105.293 14.72 105.106 14.56C104.746 14.3067 104.473 14.18 104.286 14.18L103.986 14.2C103.759 14.2 103.646 14.1 103.646 13.9C103.646 13.6467 103.819 13.52 104.166 13.52L104.786 13.56C104.973 13.5867 105.226 13.6067 105.546 13.62C105.866 13.6333 106.059 13.64 106.126 13.64L107.506 13.54Z" fill="white"/>
<path d="M59.7491 38V33.114H61.5271C61.9798 33.114 62.3251 33.2377 62.5631 33.485C62.8011 33.7323 62.9201 34.0777 62.9201 34.521C62.9201 34.9643 62.8011 35.3097 62.5631 35.557C62.3251 35.8043 61.9798 35.928 61.5271 35.928H60.3371V38H59.7491ZM60.3371 35.417H61.5131C61.7605 35.417 61.9518 35.3563 62.0871 35.235C62.2271 35.109 62.2971 34.9317 62.2971 34.703V34.339C62.2971 34.1103 62.2271 33.9353 62.0871 33.814C61.9518 33.688 61.7605 33.625 61.5131 33.625H60.3371V35.417ZM64.5344 38H63.9464V33.114H65.7244C66.1771 33.114 66.5224 33.2377 66.7604 33.485C66.9984 33.7323 67.1174 34.0777 67.1174 34.521C67.1174 34.9177 67.0147 35.235 66.8094 35.473C66.6041 35.711 66.3054 35.8487 65.9134 35.886L67.1594 38H66.5014L65.3114 35.914H64.5344V38ZM65.7104 35.417C65.9577 35.417 66.1491 35.3563 66.2844 35.235C66.4244 35.109 66.4944 34.9317 66.4944 34.703V34.339C66.4944 34.1103 66.4244 33.9353 66.2844 33.814C66.1491 33.688 65.9577 33.625 65.7104 33.625H64.5344V35.417H65.7104ZM69.6137 38.084C69.315 38.084 69.0583 38.028 68.8437 37.916C68.629 37.7993 68.4517 37.6337 68.3117 37.419C68.1717 37.2043 68.069 36.9407 68.0037 36.628C67.9383 36.3153 67.9057 35.9583 67.9057 35.557C67.9057 35.1603 67.9383 34.8057 68.0037 34.493C68.069 34.1757 68.1717 33.9097 68.3117 33.695C68.4517 33.4803 68.629 33.317 68.8437 33.205C69.0583 33.0883 69.315 33.03 69.6137 33.03C69.9123 33.03 70.169 33.0883 70.3837 33.205C70.5983 33.317 70.7757 33.4803 70.9157 33.695C71.0557 33.9097 71.1583 34.1757 71.2237 34.493C71.289 34.8057 71.3217 35.1603 71.3217 35.557C71.3217 35.9583 71.289 36.3153 71.2237 36.628C71.1583 36.9407 71.0557 37.2043 70.9157 37.419C70.7757 37.6337 70.5983 37.7993 70.3837 37.916C70.169 38.028 69.9123 38.084 69.6137 38.084ZM69.6137 37.573C69.8097 37.573 69.9753 37.5357 70.1107 37.461C70.246 37.3817 70.358 37.272 70.4467 37.132C70.5353 36.992 70.5983 36.824 70.6357 36.628C70.6777 36.4273 70.6987 36.2033 70.6987 35.956V35.158C70.6987 34.9153 70.6777 34.6937 70.6357 34.493C70.5983 34.2923 70.5353 34.122 70.4467 33.982C70.358 33.842 70.246 33.7347 70.1107 33.66C69.9753 33.5807 69.8097 33.541 69.6137 33.541C69.4177 33.541 69.252 33.5807 69.1167 33.66C68.9813 33.7347 68.8693 33.842 68.7807 33.982C68.692 34.122 68.6267 34.2923 68.5847 34.493C68.5473 34.6937 68.5287 34.9153 68.5287 35.158V35.956C68.5287 36.2033 68.5473 36.4273 68.5847 36.628C68.6267 36.824 68.692 36.992 68.7807 37.132C68.8693 37.272 68.9813 37.3817 69.1167 37.461C69.252 37.5357 69.4177 37.573 69.6137 37.573ZM72.3409 38V33.114H74.1189C74.5716 33.114 74.9169 33.2377 75.1549 33.485C75.3929 33.7323 75.5119 34.0777 75.5119 34.521C75.5119 34.9643 75.3929 35.3097 75.1549 35.557C74.9169 35.8043 74.5716 35.928 74.1189 35.928H72.9289V38H72.3409ZM72.9289 35.417H74.1049C74.3523 35.417 74.5436 35.3563 74.6789 35.235C74.8189 35.109 74.8889 34.9317 74.8889 34.703V34.339C74.8889 34.1103 74.8189 33.9353 74.6789 33.814C74.5436 33.688 74.3523 33.625 74.1049 33.625H72.9289V35.417ZM76.5382 38V33.114H79.5482V33.625H77.1262V35.27H79.4642V35.781H77.1262V37.489H79.5482V38H76.5382ZM81.3235 38H80.7355V33.114H82.5135C82.9661 33.114 83.3115 33.2377 83.5495 33.485C83.7875 33.7323 83.9065 34.0777 83.9065 34.521C83.9065 34.9177 83.8038 35.235 83.5985 35.473C83.3931 35.711 83.0945 35.8487 82.7025 35.886L83.9485 38H83.2905L82.1005 35.914H81.3235V38ZM82.4995 35.417C82.7468 35.417 82.9381 35.3563 83.0735 35.235C83.2135 35.109 83.2835 34.9317 83.2835 34.703V34.339C83.2835 34.1103 83.2135 33.9353 83.0735 33.814C82.9381 33.688 82.7468 33.625 82.4995 33.625H81.3235V35.417H82.4995ZM86.6967 33.625V38H86.1087V33.625H84.4777V33.114H88.3277V33.625H86.6967ZM90.306 38V36.082L88.619 33.114H89.291L89.991 34.388L90.586 35.501H90.614L91.223 34.388L91.923 33.114H92.581L90.894 36.082V38H90.306ZM100.003 37.349H99.9675C99.9255 37.4423 99.8765 37.5333 99.8205 37.622C99.7645 37.7107 99.6922 37.79 99.6035 37.86C99.5195 37.9253 99.4169 37.979 99.2955 38.021C99.1742 38.063 99.0295 38.084 98.8615 38.084C98.3295 38.084 97.9329 37.8693 97.6715 37.44C97.4149 37.0107 97.2865 36.3947 97.2865 35.592C97.2865 34.752 97.4289 34.115 97.7135 33.681C97.9982 33.247 98.4369 33.03 99.0295 33.03C99.2582 33.03 99.4565 33.0603 99.6245 33.121C99.7925 33.1817 99.9349 33.2633 100.052 33.366C100.173 33.4687 100.273 33.5853 100.353 33.716C100.432 33.842 100.497 33.9703 100.549 34.101L100.045 34.332C100.003 34.2247 99.9535 34.1243 99.8975 34.031C99.8462 33.933 99.7809 33.849 99.7015 33.779C99.6269 33.7043 99.5359 33.646 99.4285 33.604C99.3212 33.562 99.1952 33.541 99.0505 33.541C98.6585 33.541 98.3692 33.688 98.1825 33.982C98.0005 34.276 97.9095 34.668 97.9095 35.158V35.914C97.9095 36.1613 97.9282 36.3877 97.9655 36.593C98.0029 36.7937 98.0635 36.9687 98.1475 37.118C98.2362 37.2673 98.3482 37.384 98.4835 37.468C98.6235 37.5473 98.7939 37.587 98.9945 37.587C99.3119 37.587 99.5592 37.4913 99.7365 37.3C99.9139 37.1087 100.003 36.8613 100.003 36.558V36.054H98.9735V35.585H100.549V38H100.003V37.349ZM102.31 38H101.722V33.114H103.5C103.952 33.114 104.298 33.2377 104.536 33.485C104.774 33.7323 104.893 34.0777 104.893 34.521C104.893 34.9177 104.79 35.235 104.585 35.473C104.379 35.711 104.081 35.8487 103.689 35.886L104.935 38H104.277L103.087 35.914H102.31V38ZM103.486 35.417C103.733 35.417 103.924 35.3563 104.06 35.235C104.2 35.109 104.27 34.9317 104.27 34.703V34.339C104.27 34.1103 104.2 33.9353 104.06 33.814C103.924 33.688 103.733 33.625 103.486 33.625H102.31V35.417H103.486ZM107.389 38.084C107.09 38.084 106.834 38.028 106.619 37.916C106.404 37.7993 106.227 37.6337 106.087 37.419C105.947 37.2043 105.844 36.9407 105.779 36.628C105.714 36.3153 105.681 35.9583 105.681 35.557C105.681 35.1603 105.714 34.8057 105.779 34.493C105.844 34.1757 105.947 33.9097 106.087 33.695C106.227 33.4803 106.404 33.317 106.619 33.205C106.834 33.0883 107.09 33.03 107.389 33.03C107.688 33.03 107.944 33.0883 108.159 33.205C108.374 33.317 108.551 33.4803 108.691 33.695C108.831 33.9097 108.934 34.1757 108.999 34.493C109.064 34.8057 109.097 35.1603 109.097 35.557C109.097 35.9583 109.064 36.3153 108.999 36.628C108.934 36.9407 108.831 37.2043 108.691 37.419C108.551 37.6337 108.374 37.7993 108.159 37.916C107.944 38.028 107.688 38.084 107.389 38.084ZM107.389 37.573C107.585 37.573 107.751 37.5357 107.886 37.461C108.021 37.3817 108.133 37.272 108.222 37.132C108.311 36.992 108.374 36.824 108.411 36.628C108.453 36.4273 108.474 36.2033 108.474 35.956V35.158C108.474 34.9153 108.453 34.6937 108.411 34.493C108.374 34.2923 108.311 34.122 108.222 33.982C108.133 33.842 108.021 33.7347 107.886 33.66C107.751 33.5807 107.585 33.541 107.389 33.541C107.193 33.541 107.027 33.5807 106.892 33.66C106.757 33.7347 106.645 33.842 106.556 33.982C106.467 34.122 106.402 34.2923 106.36 34.493C106.323 34.6937 106.304 34.9153 106.304 35.158V35.956C106.304 36.2033 106.323 36.4273 106.36 36.628C106.402 36.824 106.467 36.992 106.556 37.132C106.645 37.272 106.757 37.3817 106.892 37.461C107.027 37.5357 107.193 37.573 107.389 37.573ZM110.634 33.114V36.047C110.634 36.285 110.641 36.4973 110.655 36.684C110.669 36.8707 110.707 37.0317 110.767 37.167C110.828 37.2977 110.921 37.398 111.047 37.468C111.178 37.538 111.358 37.573 111.586 37.573C111.815 37.573 111.992 37.538 112.118 37.468C112.249 37.398 112.345 37.2977 112.405 37.167C112.466 37.0317 112.503 36.8707 112.517 36.684C112.531 36.4973 112.538 36.285 112.538 36.047V33.114H113.126V35.907C113.126 36.271 113.108 36.5883 113.07 36.859C113.038 37.1297 112.965 37.356 112.853 37.538C112.746 37.72 112.59 37.8577 112.384 37.951C112.184 38.0397 111.918 38.084 111.586 38.084C111.255 38.084 110.987 38.0397 110.781 37.951C110.581 37.8577 110.424 37.72 110.312 37.538C110.205 37.356 110.133 37.1297 110.095 36.859C110.063 36.5883 110.046 36.271 110.046 35.907V33.114H110.634ZM114.314 38V33.114H116.092C116.544 33.114 116.89 33.2377 117.128 33.485C117.366 33.7323 117.485 34.0777 117.485 34.521C117.485 34.9643 117.366 35.3097 117.128 35.557C116.89 35.8043 116.544 35.928 116.092 35.928H114.902V38H114.314ZM114.902 35.417H116.078C116.325 35.417 116.516 35.3563 116.652 35.235C116.792 35.109 116.862 34.9317 116.862 34.703V34.339C116.862 34.1103 116.792 33.9353 116.652 33.814C116.516 33.688 116.325 33.625 116.078 33.625H114.902V35.417Z" fill="white"/>
</svg>
