<svg width="129" height="50" viewBox="0 0 129 50" fill="none" xmlns="http://www.w3.org/2000/svg">
<path d="M11.1422 21.7959C11.5568 20.6311 12.1787 19.5702 12.9872 18.7174C11.3288 16.4917 9.04844 15.3268 7.36926 14.7444C7.34852 14.7444 6.89244 14.6196 6.41566 14.474C5.27546 15.514 4.30113 16.7413 3.57556 18.135L11.1422 21.7959Z" fill="white"/>
<path d="M21.4038 35.0462C12.2409 34.859 9.50444 27.9322 10.8726 22.6487L3.18164 18.9461C2.41461 20.631 2 22.5239 2 24.5C2 31.9468 8.03257 38 15.4541 38C18.6881 38 21.6733 36.8351 23.9951 34.9214V34.9006C23.1451 35.0046 22.2744 35.067 21.4038 35.0462Z" fill="white"/>
<path d="M28.5558 21.4836C27.996 26.2471 25.9437 30.5945 22.9171 33.9851C23.2488 33.9643 23.4975 33.9435 23.8499 33.8811L25.2182 33.7147C27.4778 31.3018 28.8667 28.0568 28.8667 24.479C28.8875 23.4597 28.7838 22.4613 28.5558 21.4836Z" fill="#9A874F"/>
<path d="M27.5814 18.6966C27.0009 17.4693 26.2339 16.3668 25.3425 15.3684C26.5656 22.3368 24.8242 28.5979 20.1599 33.9646C20.5745 34.0062 20.9891 34.027 21.4245 34.0478H21.6939C21.9012 34.0478 22.233 34.027 22.233 34.0062C26.0473 29.6172 27.8509 24.4585 27.5814 18.6966Z" fill="#9A874F"/>
<path d="M24.0158 14.0993C23.228 13.4336 22.3573 12.872 21.4245 12.4144C23.8499 20.3604 22.6269 27.2872 17.5479 33.4443C18.1698 33.6523 18.7917 33.7979 19.5587 33.9019C24.2024 27.9528 25.7157 21.1508 24.0158 14.0993Z" fill="#9A874F"/>
<path d="M15.2053 30.9899C15.0602 31.3227 14.8944 31.6555 14.7078 31.9883C15.3712 32.5084 16.076 32.9244 17.0503 33.278C21.7562 27.3081 23.0207 18.634 20.0148 11.8112C18.5844 11.2912 17.0503 11 15.4541 11C12.4274 11 9.62881 12.0193 7.38992 13.7249C7.53504 13.7665 7.65941 13.8082 7.72159 13.829C11.4116 15.0978 16.6565 18.5716 16.1796 26.9961C16.076 28.3481 15.765 29.721 15.2053 30.9899Z" fill="#9A874F"/>
<path d="M99.7106 31C98.218 31 97.0158 32.0608 97.0158 33.3505C97.0158 34.6402 98.218 35.701 99.7106 35.701C101.203 35.701 102.406 34.6402 102.406 33.3505C102.406 32.0608 101.203 31 99.7106 31ZM99.7106 34.8066C98.9023 34.8066 98.239 34.1617 98.239 33.3505C98.239 32.5393 98.9023 31.8944 99.7106 31.8944C100.519 31.8944 101.183 32.5393 101.183 33.3505C101.183 34.1617 100.54 34.8066 99.7106 34.8066ZM64.676 31.0832H64.5725H64.3651H61.3799V35.5554H62.6445V33.8497H63.7018L64.8214 35.5554H66.314L65.0285 33.7457L65.1738 33.7041C65.8162 33.4545 66.0652 33.1425 66.0652 32.4353C66.0446 31.728 65.4018 31.0832 64.676 31.0832ZM62.6445 32.8513V32.04H64.1786C64.4896 32.04 64.759 32.0608 64.759 32.4561C64.759 32.7889 64.5311 32.8721 64.2411 32.8721H62.6445V32.8513ZM123.489 31.0832H122.369V35.5138H125.935V34.557H123.489V31.0832ZM117.145 31.0832H115.922L113.745 35.5138H115.051L115.487 34.7234H117.56L117.912 35.5138H119.218L117.145 31.0832ZM115.86 33.8705L116.461 32.4769L116.544 32.3937V32.5601L117.145 33.8705H115.86ZM110.739 31.0832H109.516V33.3505L109.599 34.037L109.164 33.5169L106.987 31.0832H105.868V35.5138H106.987V33.0801V32.5601L107.423 33.0801L109.496 35.5138H110.719V31.0832H110.739ZM93.5537 31.0832H92.3305V35.5138H93.5537V31.0832ZM89.1383 31.0832H84.8054V32.04H86.3605V35.5138H87.5832V32.04H89.1383V31.0832ZM80.8044 31.0832H79.4987L77.4253 35.5138H78.7314L79.0839 34.7234H81.1568L81.5922 35.5138H82.8984L80.8044 31.0832ZM79.4987 33.8705L80.0996 32.4769V32.3937L80.1826 32.5601L80.7839 33.8705H79.4987ZM74.2951 31.0832H73.1758V33.3505V34.037L72.7404 33.5169L70.6674 31.0832H69.5478V35.5138H70.6674V33.0801V32.5601L71.1028 33.0801L73.1758 35.5138H74.2951V31.0832ZM57.6487 31.0832H53.5648V35.5138H57.8143V34.6402H54.788V33.7041H57.5658V32.8305H54.788V32.04H57.6487V31.0832ZM50.3516 31.0832H46.0187V32.04H47.5734V35.5138H48.7966V32.04H50.3516V31.0832ZM42.8056 31.0832H41.6859V33.3505V34.037L41.2509 33.5169L39.1775 31.0832H38.0583V35.5138H39.1775V33.0801V32.5601L39.5299 33.0801L41.7068 35.5138H42.8261V31.0832H42.8056ZM34.2231 31.0832H33V35.5138H34.2231V31.0832Z" fill="white"/>
<path d="M63.152 16H60.8483L65.3958 28H68L63.152 16ZM56 27.9746H58.5442L59.5861 25.3108H62.6111L59.8465 18.4863L56 27.9746Z" fill="white"/>
<path d="M40.1108 20.0851C40.1108 19.5234 39.9261 19.0894 39.5778 18.8085C39.2294 18.5277 38.7377 18.3745 38.1025 18.3745H35.5615V21.8213H38.1435C38.7787 21.8213 39.2501 21.6681 39.5985 21.3617C39.9261 21.0553 40.1108 20.6468 40.1108 20.1362V20.0851ZM40.0491 27.9744L37.5697 24.1447H35.5615V27.9744H33V16H38.3074C39.6805 16 40.7665 16.3574 41.5246 17.0468C42.283 17.7362 42.672 18.7064 42.672 19.9574V19.983C42.672 20.9532 42.4466 21.7447 41.9752 22.3574C41.5246 22.9702 40.9099 23.4043 40.1722 23.7106L43 28H40.0491V27.9744Z" fill="white"/>
<path d="M45 28V16H53.9164V18.354H47.5684V20.7847H53.1436V23.1386H47.5684V25.6461H54V28H45Z" fill="white"/>
<path d="M71 28V16H73.457V25.6205H79V28H71Z" fill="white"/>
<path d="M85.3326 18.4307V28H82.6674V18.4307H79V16H89V18.4307H85.3326Z" fill="white"/>
<path d="M99.4084 22C99.4084 21.5041 99.3286 21.033 99.1493 20.5868C98.9897 20.1405 98.7508 19.7438 98.4317 19.4215C98.1327 19.0992 97.754 18.8265 97.3353 18.6281C96.9167 18.4298 96.4585 18.3306 95.9601 18.3306C95.4617 18.3306 95.0032 18.4298 94.5845 18.6033C94.1659 18.8016 93.8073 19.0496 93.528 19.3719C93.2291 19.6942 93.0099 20.0909 92.8306 20.5372C92.671 20.9835 92.5715 21.4545 92.5715 21.9504V21.9752C92.5715 22.4711 92.6513 22.9421 92.8306 23.3885C92.9901 23.8347 93.2291 24.2066 93.5482 24.5537C93.8472 24.876 94.2058 25.1488 94.6244 25.3471C95.0431 25.5455 95.5016 25.6446 96 25.6446C96.4984 25.6446 96.9566 25.5455 97.3752 25.3719C97.7938 25.1735 98.1528 24.9257 98.4518 24.5785C98.7508 24.2562 98.97 23.8595 99.1493 23.4132C99.3089 22.967 99.4084 22.4959 99.4084 22ZM102 22C102 22.843 101.84 23.6116 101.541 24.3306C101.242 25.0496 100.824 25.6942 100.286 26.2397C99.7473 26.7851 99.1094 27.2314 98.3918 27.5289C97.6544 27.8513 96.857 28 95.9799 28C95.1031 28 94.3057 27.8513 93.5679 27.5289C92.8306 27.2066 92.2125 26.7851 91.6742 26.2397C91.1363 25.6942 90.7374 25.0744 90.4384 24.3554C90.1394 23.6364 90 22.843 90 22.0248V22C90 21.1818 90.1596 20.3884 90.4585 19.6694C90.7575 18.9504 91.1761 18.3058 91.7141 17.7603C92.2524 17.2149 92.8902 16.7686 93.6078 16.4711C94.3456 16.1488 95.1426 16 96.0198 16C96.8969 16 97.6943 16.1488 98.4317 16.4711C99.1694 16.7934 99.7871 17.2149 100.325 17.7603C100.864 18.3058 101.262 18.9256 101.561 19.6446C101.86 20.3637 102 21.157 102 21.9752V22Z" fill="white"/>
<path d="M112.11 20.0851C112.11 19.5234 111.926 19.0894 111.578 18.8085C111.229 18.5277 110.738 18.3745 110.102 18.3745H107.562V21.8213H110.143C110.779 21.8213 111.25 21.6681 111.598 21.3617C111.926 21.0553 112.11 20.6468 112.11 20.1362V20.0851ZM112.049 27.9744L109.57 24.1447H107.562V27.9744H105V16H110.307C111.68 16 112.766 16.3574 113.525 17.0468C114.303 17.7362 114.672 18.7064 114.672 19.9574V19.983C114.672 20.9532 114.447 21.7447 113.975 22.3574C113.525 22.9702 112.91 23.4043 112.172 23.7106L115 28H112.049V27.9744Z" fill="white"/>
<path d="M125.715 25.9044C125.513 26.3534 125.231 26.7277 124.848 27.052C124.485 27.3514 124.041 27.6009 123.536 27.7506C123.032 27.9002 122.467 28 121.842 28C120.974 28 120.107 27.8503 119.28 27.5509C118.433 27.2516 117.686 26.7775 117 26.1289L118.493 24.3077C119.017 24.7318 119.542 25.0811 120.107 25.3555C120.651 25.605 121.257 25.7297 121.902 25.7297C122.427 25.7297 122.83 25.63 123.113 25.4304C123.395 25.2308 123.536 24.9563 123.536 24.6071V24.5821C123.536 24.4075 123.496 24.2578 123.456 24.1331C123.395 24.0083 123.274 23.8836 123.113 23.7838C122.951 23.684 122.709 23.5593 122.406 23.4595C122.104 23.3597 121.721 23.2349 121.237 23.1102C120.651 22.9605 120.147 22.8108 119.663 22.6362C119.199 22.4615 118.795 22.237 118.473 21.9875C118.15 21.7131 117.888 21.3888 117.706 21.0146C117.524 20.6154 117.444 20.1414 117.444 19.5676V19.5426C117.444 19.0187 117.545 18.5198 117.726 18.0956C117.928 17.6715 118.19 17.2973 118.553 16.973C118.896 16.6736 119.32 16.4241 119.804 16.2495C120.288 16.0748 120.833 16 121.418 16C122.245 16 123.032 16.1247 123.718 16.3742C124.424 16.6237 125.07 16.9979 125.654 17.4719L124.343 19.4179C123.839 19.0686 123.335 18.7692 122.851 18.5696C122.366 18.3701 121.862 18.2703 121.378 18.2703C120.894 18.2703 120.531 18.3701 120.268 18.5696C120.026 18.7692 119.905 19.0187 119.905 19.2932V19.3181C119.905 19.5177 119.945 19.6674 120.006 19.8171C120.067 19.9668 120.208 20.0915 120.389 20.1913C120.571 20.2911 120.833 20.4158 121.156 20.5156C121.479 20.6154 121.882 20.7402 122.366 20.8649C122.951 21.0146 123.456 21.1892 123.899 21.3888C124.343 21.5883 124.727 21.8129 125.049 22.0873C125.352 22.3617 125.594 22.6861 125.756 23.0603C125.917 23.4345 125.997 23.8587 125.997 24.3826V24.4075C126.018 24.9563 125.917 25.4553 125.715 25.9044Z" fill="white"/>
</svg>
