<svg width="78" height="46" viewBox="0 0 78 46" fill="none" xmlns="http://www.w3.org/2000/svg">
<path d="M16.5047 8.476C16.6487 8.404 16.7447 8.368 16.7927 8.368C17.1767 8.368 17.3687 8.596 17.3687 9.052L17.6207 11.716L18.0167 14.164C18.0647 14.308 18.0887 14.512 18.0887 14.776C18.0887 15.112 17.9207 15.28 17.5847 15.28C17.3687 15.28 17.2127 15.22 17.1167 15.1C17.0207 14.98 16.8767 14.644 16.6847 14.092C16.5167 13.54 16.2047 12.94 15.7487 12.292C15.3167 11.644 14.8487 11.092 14.3447 10.636C13.2167 9.628 11.7767 9.124 10.0247 9.124C8.65669 9.124 7.51669 9.508 6.60469 10.276C5.69269 11.044 5.23669 12.016 5.23669 13.192C5.23669 14.2 5.54869 15.028 6.17269 15.676C6.82069 16.324 7.92469 16.936 9.48469 17.512C11.3807 18.184 12.7007 18.688 13.4447 19.024C14.2127 19.336 14.9927 19.72 15.7847 20.176C17.9207 21.4 18.9887 23.32 18.9887 25.936C18.9887 28.456 18.1247 30.52 16.3967 32.128C14.6927 33.712 12.4967 34.504 9.80869 34.504C8.89669 34.504 7.94869 34.408 6.96469 34.216C6.00469 34.024 5.18869 33.82 4.51669 33.604C3.86869 33.388 3.38869 33.184 3.07669 32.992C2.78869 32.776 2.62069 32.356 2.57269 31.732C2.50069 31.3 2.40469 30.82 2.28469 30.292C2.16469 29.74 1.91269 28.732 1.52869 27.268C1.43269 27.1 1.38469 26.908 1.38469 26.692C1.38469 26.308 1.60069 26.116 2.03269 26.116C2.34469 26.116 2.60869 26.404 2.82469 26.98C3.06469 27.532 3.41269 28.18 3.86869 28.924C4.34869 29.668 4.79269 30.256 5.20069 30.688C5.84869 31.408 6.62869 31.972 7.54069 32.38C8.45269 32.788 9.40069 32.992 10.3847 32.992C11.8247 32.992 13.0247 32.548 13.9847 31.66C14.9687 30.772 15.4607 29.656 15.4607 28.312C15.4607 27.568 15.2927 26.884 14.9567 26.26C14.6207 25.636 14.1887 25.144 13.6607 24.784C13.1567 24.4 12.3407 23.992 11.2127 23.56C9.02869 22.768 7.69669 22.276 7.21669 22.084C6.73669 21.868 6.14869 21.556 5.45269 21.148C3.05269 19.828 1.85269 17.824 1.85269 15.136C1.85269 12.976 2.64469 11.188 4.22869 9.772C5.83669 8.332 7.84069 7.612 10.2407 7.612C11.5847 7.612 13.1687 7.972 14.9927 8.692C15.3047 8.86 15.5687 8.944 15.7847 8.944C16.0247 8.944 16.1807 8.872 16.2527 8.728L16.5047 8.476ZM25.9983 24.928C25.6863 24.928 25.5303 25.132 25.5303 25.54C25.5303 27.364 26.0463 28.936 27.0783 30.256C28.1103 31.576 29.3583 32.236 30.8223 32.236C31.4943 32.236 32.1663 32.116 32.8383 31.876C33.5103 31.636 34.1103 31.288 34.6383 30.832C34.9023 30.592 35.0823 30.448 35.1783 30.4C35.2983 30.328 35.4303 30.292 35.5743 30.292C35.8383 30.292 35.9703 30.424 35.9703 30.688C35.9703 30.976 35.7903 31.348 35.4303 31.804C34.7583 32.596 33.8343 33.232 32.6583 33.712C31.4823 34.192 30.2463 34.432 28.9503 34.432C26.6703 34.432 24.8103 33.688 23.3703 32.2C21.9303 30.712 21.2103 28.78 21.2103 26.404C21.2103 23.98 21.9303 21.976 23.3703 20.392C24.8103 18.808 26.6343 18.016 28.8423 18.016C30.7863 18.016 32.4423 18.628 33.8103 19.852C35.2023 21.076 35.8983 22.552 35.8983 24.28C35.8983 24.592 35.8023 24.784 35.6103 24.856C35.4183 24.904 35.1543 24.928 34.8183 24.928H25.9983ZM25.6023 23.236C25.6023 23.428 25.6143 23.548 25.6383 23.596C25.6863 23.62 25.8183 23.632 26.0343 23.632H31.0743C31.4823 23.632 31.6863 23.392 31.6863 22.912C31.6863 21.856 31.3983 20.98 30.8223 20.284C30.2703 19.564 29.5863 19.204 28.7703 19.204C27.9063 19.204 27.1623 19.6 26.5383 20.392C25.9143 21.184 25.6023 22.132 25.6023 23.236ZM42.592 24.928C42.28 24.928 42.124 25.132 42.124 25.54C42.124 27.364 42.64 28.936 43.672 30.256C44.704 31.576 45.952 32.236 47.416 32.236C48.088 32.236 48.76 32.116 49.432 31.876C50.104 31.636 50.704 31.288 51.232 30.832C51.496 30.592 51.676 30.448 51.772 30.4C51.892 30.328 52.024 30.292 52.168 30.292C52.432 30.292 52.564 30.424 52.564 30.688C52.564 30.976 52.384 31.348 52.024 31.804C51.352 32.596 50.428 33.232 49.252 33.712C48.076 34.192 46.84 34.432 45.544 34.432C43.264 34.432 41.404 33.688 39.964 32.2C38.524 30.712 37.804 28.78 37.804 26.404C37.804 23.98 38.524 21.976 39.964 20.392C41.404 18.808 43.228 18.016 45.436 18.016C47.38 18.016 49.036 18.628 50.404 19.852C51.796 21.076 52.492 22.552 52.492 24.28C52.492 24.592 52.396 24.784 52.204 24.856C52.012 24.904 51.748 24.928 51.412 24.928H42.592ZM42.196 23.236C42.196 23.428 42.208 23.548 42.232 23.596C42.28 23.62 42.412 23.632 42.628 23.632H47.668C48.076 23.632 48.28 23.392 48.28 22.912C48.28 21.856 47.992 20.98 47.416 20.284C46.864 19.564 46.18 19.204 45.364 19.204C44.5 19.204 43.756 19.6 43.132 20.392C42.508 21.184 42.196 22.132 42.196 23.236ZM54.3944 20.284C53.9144 20.284 53.6744 20.176 53.6744 19.96C53.6744 19.624 53.7464 19.288 53.8904 18.952C53.9384 18.784 54.1064 18.7 54.3944 18.7H55.7984C56.1104 18.7 56.2664 18.52 56.2664 18.16V17.224C56.2664 15.808 56.4584 14.548 56.8424 13.444C57.2264 12.316 57.8264 11.212 58.6424 10.132C59.4824 9.028 60.5144 8.104 61.7384 7.36C62.9864 6.592 64.0904 6.208 65.0504 6.208C65.6024 6.208 66.0944 6.352 66.5264 6.64C66.9584 6.928 67.1744 7.276 67.1744 7.684V7.9L66.5624 9.448C66.2264 10.408 65.8424 10.888 65.4104 10.888C65.1224 10.888 64.8704 10.696 64.6544 10.312L64.1144 9.484L63.7544 9.016C63.5864 8.8 63.3824 8.692 63.1424 8.692C62.4224 8.692 61.8104 9.196 61.3064 10.204C60.8024 11.212 60.5504 12.448 60.5504 13.912V18.088C60.5504 18.496 60.7304 18.7 61.0904 18.7H63.2864L63.8264 18.52L64.3304 18.016L64.6184 17.872C64.8584 17.872 64.9784 18.016 64.9784 18.304L64.9424 18.484L64.6544 19.168C64.4624 19.792 64.2704 20.152 64.0784 20.248C63.9584 20.344 63.6584 20.392 63.1784 20.392H61.1264C60.7664 20.392 60.5864 20.596 60.5864 21.004V30.22C60.5864 31.228 60.7184 31.948 60.9824 32.38C61.2704 32.788 61.7744 32.992 62.4944 32.992C62.9744 32.992 63.2144 33.148 63.2144 33.46C63.2144 33.844 62.9744 34.036 62.4944 34.036L61.7384 33.964C61.4504 33.964 60.9224 33.94 60.1544 33.892C59.4104 33.844 58.9664 33.82 58.8224 33.82C58.3424 33.82 57.9224 33.82 57.5624 33.82C57.2264 33.82 56.7344 33.868 56.0864 33.964L55.3304 34.036C54.8264 34.036 54.5744 33.844 54.5744 33.46C54.5744 33.22 54.7784 33.052 55.1864 32.956C55.5944 32.86 55.8704 32.62 56.0144 32.236C56.1824 31.852 56.2664 31.168 56.2664 30.184V20.896C56.2664 20.488 56.1104 20.284 55.7984 20.284H54.3944ZM64.7655 20.284C64.2855 20.284 64.0455 20.176 64.0455 19.96C64.0455 19.624 64.1175 19.288 64.2615 18.952C64.3095 18.784 64.4775 18.7 64.7655 18.7H66.1695C66.4815 18.7 66.6375 18.52 66.6375 18.16V17.224C66.6375 15.808 66.8295 14.548 67.2135 13.444C67.5975 12.316 68.1975 11.212 69.0135 10.132C69.8535 9.028 70.8855 8.104 72.1095 7.36C73.3575 6.592 74.4615 6.208 75.4215 6.208C75.9735 6.208 76.4655 6.352 76.8975 6.64C77.3295 6.928 77.5455 7.276 77.5455 7.684V7.9L76.9335 9.448C76.5975 10.408 76.2135 10.888 75.7815 10.888C75.4935 10.888 75.2415 10.696 75.0255 10.312L74.4855 9.484L74.1255 9.016C73.9575 8.8 73.7535 8.692 73.5135 8.692C72.7935 8.692 72.1815 9.196 71.6775 10.204C71.1735 11.212 70.9215 12.448 70.9215 13.912V18.088C70.9215 18.496 71.1015 18.7 71.4615 18.7H73.6575L74.1975 18.52L74.7015 18.016L74.9895 17.872C75.2295 17.872 75.3495 18.016 75.3495 18.304L75.3135 18.484L75.0255 19.168C74.8335 19.792 74.6415 20.152 74.4495 20.248C74.3295 20.344 74.0295 20.392 73.5495 20.392H71.4975C71.1375 20.392 70.9575 20.596 70.9575 21.004V30.22C70.9575 31.228 71.0895 31.948 71.3535 32.38C71.6415 32.788 72.1455 32.992 72.8655 32.992C73.3455 32.992 73.5855 33.148 73.5855 33.46C73.5855 33.844 73.3455 34.036 72.8655 34.036L72.1095 33.964C71.8215 33.964 71.2935 33.94 70.5255 33.892C69.7815 33.844 69.3375 33.82 69.1935 33.82C68.7135 33.82 68.2935 33.82 67.9335 33.82C67.5975 33.82 67.1055 33.868 66.4575 33.964L65.7015 34.036C65.1975 34.036 64.9455 33.844 64.9455 33.46C64.9455 33.22 65.1495 33.052 65.5575 32.956C65.9655 32.86 66.2415 32.62 66.3855 32.236C66.5535 31.852 66.6375 31.168 66.6375 30.184V20.896C66.6375 20.488 66.4815 20.284 66.1695 20.284H64.7655Z" fill="white"/>
<path d="M7.62939e-06 38H75" stroke="#C22739"/>
</svg>
